<?xml version="1.0" encoding="iso-8859-1"?>
<!-- Generator: Adobe Illustrator 19.0.0, SVG Export Plug-In . SVG Version: 6.00 Build 0)  -->
<svg xmlns="http://www.w3.org/2000/svg" xmlns:xlink="http://www.w3.org/1999/xlink" version="1.1" id="Capa_1" x="0px" y="0px" viewBox="0 0 512 512" style="enable-background:new 0 0 512 512;" xml:space="preserve" width="512px" height="512px">
<g>
	<g>
		<path d="M506.8,34.815c-3.142-1.342-6.796-0.663-9.263,1.717L256,269.744L14.462,36.532c-2.471-2.379-6.121-3.067-9.262-1.717    C2.046,36.152,0,39.244,0,42.669v187.733c0,2.317,0.942,4.529,2.604,6.138l247.467,238.937c1.654,1.592,3.792,2.392,5.929,2.392    s4.275-0.8,5.929-2.392L509.396,236.54c1.663-1.608,2.604-3.821,2.604-6.138V42.669C512,39.244,509.954,36.152,506.8,34.815z     M494.933,226.782L256,457.477L17.067,226.782V62.769l233.004,224.975c3.308,3.183,8.55,3.183,11.858,0L494.933,62.769V226.782z" fill="#4382b0"/>
	</g>
</g>
<g>
</g>
<g>
</g>
<g>
</g>
<g>
</g>
<g>
</g>
<g>
</g>
<g>
</g>
<g>
</g>
<g>
</g>
<g>
</g>
<g>
</g>
<g>
</g>
<g>
</g>
<g>
</g>
<g>
</g>
</svg>
