<?xml version="1.0" encoding="iso-8859-1"?>
<!-- Generator: Adobe Illustrator 19.0.0, SVG Export Plug-In . SVG Version: 6.00 Build 0)  -->
<svg xmlns="http://www.w3.org/2000/svg" xmlns:xlink="http://www.w3.org/1999/xlink" version="1.1" id="Capa_1" x="0px" y="0px" viewBox="0 0 512 512" style="enable-background:new 0 0 512 512;" xml:space="preserve" width="512px" height="512px">
<g>
	<g>
		<path d="M509.396,275.457L261.929,36.528c-3.308-3.192-8.55-3.192-11.858,0L2.604,275.457C0.942,277.066,0,279.282,0,281.599    v187.733c0,3.425,2.046,6.517,5.2,7.858c3.15,1.308,6.796,0.658,9.262-1.717L256,242.262l241.538,233.212    c1.625,1.567,3.762,2.392,5.929,2.392c1.125,0,2.258-0.225,3.333-0.675c3.154-1.342,5.2-4.433,5.2-7.858V281.599    C512,279.282,511.058,277.066,509.396,275.457z M494.933,449.232L261.929,224.261c-1.654-1.596-3.792-2.396-5.929-2.396    s-4.275,0.8-5.929,2.396L17.067,449.232V285.224L256,54.528l238.933,230.696V449.232z" fill="#4382b0"/>
	</g>
</g>
<g>
</g>
<g>
</g>
<g>
</g>
<g>
</g>
<g>
</g>
<g>
</g>
<g>
</g>
<g>
</g>
<g>
</g>
<g>
</g>
<g>
</g>
<g>
</g>
<g>
</g>
<g>
</g>
<g>
</g>
</svg>
